<svg id="Component_5_1" data-name="Component 5 – 1" xmlns="http://www.w3.org/2000/svg" width="65" height="80" viewBox="0 0 65 80">
  <g id="Component_4_1" data-name="Component 4 – 1">
    <g id="Rectangle_1" data-name="Rectangle 1" fill="#252525" stroke="#252525" stroke-width="1">
      <rect width="65" height="65" rx="17" stroke="none"/>
      <rect x="0.5" y="0.5" width="64" height="64" rx="16.5" fill="none"/>
    </g>
    <g id="Polygon_1" data-name="Polygon 1" transform="translate(57 80) rotate(180)" fill="#252525">
      <path d="M 45.09578323364258 25.30891799926758 C 45.08285140991211 25.30891799926758 45.06979370117188 25.30848693847656 45.05652236938477 25.3076171875 L 24.0973014831543 23.94526672363281 C 24.06492233276367 23.94316673278809 24.03246116638184 23.94210815429688 24.00000190734863 23.94210815429688 C 23.96754264831543 23.94210815429688 23.93508148193359 23.94316673278809 23.90268135070801 23.94526672363281 L 2.94349193572998 25.3076171875 C 2.930241823196411 25.3084774017334 2.917101860046387 25.30891799926758 2.904191970825195 25.30891799926758 C 2.588131904602051 25.30891799926758 2.470412015914917 25.05839729309082 2.441861867904663 24.98162841796875 C 2.413561820983887 24.90552711486816 2.340221881866455 24.6408576965332 2.584381818771362 24.43013763427734 L 14.39589214324951 14.23687744140625 C 14.48627185821533 14.15886783599854 14.56723213195801 14.07009792327881 14.63658237457275 13.97299766540527 L 23.59309196472168 1.430227518081665 C 23.68813133239746 1.297127485275269 23.83645248413086 1.220797538757324 24.00000190734863 1.220797538757324 C 24.16355133056641 1.220797538757324 24.31186103820801 1.297127485275269 24.40690231323242 1.430227518081665 L 33.36341094970703 13.97296714782715 C 33.4327507019043 14.07008743286133 33.51374053955078 14.1588773727417 33.60411071777344 14.23686790466309 L 45.41562271118164 24.43013763427734 C 45.65973281860352 24.64080810546875 45.58639144897461 24.90544700622559 45.55810165405273 24.98153686523438 C 45.5295524597168 25.05832672119141 45.41184234619141 25.30888748168945 45.09578323364258 25.30891799926758 Z" stroke="none"/>
      <path d="M 23.9998950958252 1.72093391418457 L 23.99999237060547 1.720796585083008 L 15.04347229003906 14.26358795166016 C 14.95101165771484 14.39303779602051 14.84307098388672 14.51138782501221 14.72256088256836 14.61540794372559 L 2.911052703857422 24.80867767333984 L 23.86997222900391 23.44634819030762 C 23.95604133605957 23.44072723388672 24.0442008972168 23.44072723388672 24.12973213195801 23.44632720947266 L 45.08892059326172 24.80867385864258 C 45.08892440795898 24.80866622924805 45.08892822265625 24.80865859985352 45.08895111083984 24.80866813659668 L 33.27743148803711 14.61539745330811 C 33.1569709777832 14.51143741607666 33.04901123046875 14.39306735992432 32.95650100708008 14.26353740692139 L 23.9998950958252 1.72093391418457 M 24 0.7207927703857422 C 24.30720520019531 0.7207927703857422 24.61440658569336 0.8604183197021484 24.81381225585938 1.139667510986328 L 33.77031326293945 13.68240737915039 C 33.81661224365234 13.74723720550537 33.8704833984375 13.80629730224609 33.93079376220703 13.85834789276123 L 45.74229049682617 24.05160713195801 C 46.46846008300781 24.67829704284668 45.98126220703125 25.86878776550293 45.02408218383789 25.80656814575195 L 24.06487274169922 24.44421768188477 C 24.02166938781738 24.44140625 23.97833251953125 24.44140815734863 23.93514251708984 24.44421768188477 L 2.975910186767578 25.80656814575195 C 2.018665313720703 25.86878395080566 1.531532287597656 24.67829513549805 2.257713317871094 24.05160713195801 L 14.06922149658203 13.85834789276123 C 14.12952041625977 13.80629730224609 14.18339157104492 13.74723720550537 14.22969055175781 13.68240737915039 L 23.18618202209473 1.139667510986328 C 23.38559150695801 0.8604183197021484 23.69279670715332 0.7207927703857422 24 0.7207927703857422 Z" stroke="none" fill="#252525"/>
    </g>
  </g>
  <g id="home" transform="translate(15.571 14.632)">
    <path id="Path_3" data-name="Path 3" d="M3,13.458,16.929,2,30.858,13.458V31.463a3.188,3.188,0,0,1-3.1,3.274H6.1A3.188,3.188,0,0,1,3,31.463Z" fill="#fff" stroke="#252525" stroke-linecap="round" stroke-linejoin="round" stroke-width="2"/>
    <path id="Path_4" data-name="Path 4" d="M9,22V12h6V22" transform="translate(4.929 12.737)" fill="#fff" stroke="#252525" stroke-linecap="round" stroke-linejoin="round" stroke-width="2"/>
  </g>
</svg>
